# xmcd CD database file
#
# Track frame offsets:
#	150
#	9330
#	21545
#	32195
#	41272
#	52297
#	63350
#	73140
#	83120
#	94455
#	105002
#	115570
#	125925
#	136437
#	145537
#	158015
#	167242
#	183450
#	194152
#
# Disc length: 2767 seconds
#
# Revision: 2
# Processed by: cddbd v1.5.2PL0 Copyright (c) Steve Scherf et al.
# Submitted via: CDex 1.51
#
DISCID=100acd13
DTITLE=Buck Owens - Buck Owens Beste - Norske Hits 1959-1969
DYEAR=1998
DGENRE=Country
TTITLE0=Gunnar Eide introduserer Buck Owens, Njårdhallen  (1970)
TTITLE1=Under your spell again  (1959)
TTITLE2=Act naturally  (1963)
TTITLE3=Love's gonna live here  (1963)
TTITLE4=Together again  (1964)
TTITLE5=My heart skips a beat  (1964)
TTITLE6=I don't care (Just as long as you love me)  (1964)
TTITLE7=I've got a tiger by the tail  (1964)
TTITLE8=Cryin' time  (1964)
TTITLE9=Only you (Can break my heart)  (1965)
TTITLE10=Waitin' in your welfare line  (1966)
TTITLE11=Think of me  (1966)
TTITLE12=Where does the good times go  (1966)
TTITLE13=Sam's place  (1967)
TTITLE14=Your tender loving care  (1967)
TTITLE15=It takes people like you (To make people like me)  (1967)
TTITLE16=Sweet Rosie Jones  (1968)
TTITLE17=Who's gonne mow your grass  (1969)
TTITLE18=Tall dark stranger  (1969)
EXTD=YEAR: 1998
EXTT0=
EXTT1=
EXTT2=
EXTT3=
EXTT4=
EXTT5=
EXTT6=
EXTT7=
EXTT8=
EXTT9=
EXTT10=
EXTT11=
EXTT12=
EXTT13=
EXTT14=
EXTT15=
EXTT16=
EXTT17=
EXTT18=
PLAYORDER=
